<?xml version="1.0" encoding="UTF-8" standalone="no" ?>
<!DOCTYPE svg PUBLIC "-//W3C//DTD SVG 1.1//EN" "http://www.w3.org/Graphics/SVG/1.1/DTD/svg11.dtd">
<svg xmlns="http://www.w3.org/2000/svg" xmlns:xlink="http://www.w3.org/1999/xlink" version="1.1" width="500" height="70" viewBox="0 0 500 70" xml:space="preserve">
<desc>Created with Fabric.js 5.3.0</desc>
<defs>
</defs>
<g transform="matrix(1 0 0 1 250 35)" id="jiduIIf8TPURG0SRf91E4"  >
<path style="stroke: rgb(0,0,0); stroke-width: 0.5; stroke-dasharray: none; stroke-linecap: butt; stroke-dashoffset: 0; stroke-linejoin: miter; stroke-miterlimit: 4; fill: rgb(255,255,255); fill-opacity: 0; fill-rule: nonzero; opacity: 1;"  transform=" translate(0, -0.0000077704)" d="M -272.65686 17.67094 C -272.65686 17.67094 -267.84555 18.695590000000003 -259.72113 17.67094 C -251.59671000000003 16.64629 -232.41326 12.02316 -232.41326 12.02316 L -204.04495 4.650430000000001 C -202.27959 4.246610000000001 -185.826 -1.0623199999999988 -172.33181 -8.010369999999998 L -148.91557 -18.84764 L -137.39377 -24.125519999999998 L -137.39377 -24.125519999999998 C -114.21197999999998 -34.74458 -88.09223999999999 -37.1028 -63.38333999999999 -30.807539999999996 L -62.50174999999999 -30.582929999999998 L -62.50174999999999 -30.582929999999998 C -58.15735999999999 -29.476079999999996 -53.951689999999985 -27.882709999999996 -49.96449999999999 -25.833039999999997 L 0.8842600000000118 0.3064800000000041 L 0.8842600000000118 0.3064800000000041 C 23.330460000000013 11.845270000000005 47.01752000000001 20.790760000000002 71.48773000000001 26.970110000000005 L 71.48773000000001 26.970110000000005 L 71.48773000000001 26.970110000000005 C 97.86828000000001 33.631870000000006 125.19094000000001 35.750820000000004 152.28316 33.23603000000001 L 164.81577000000001 32.07271000000001 L 204.68629 26.85336000000001 L 219.1014 24.674630000000008 L 219.1014 24.674630000000008 C 236.76485000000002 22.00494000000001 254.08768 17.432370000000006 270.76761 11.036710000000008 L 272.65686 10.312310000000009" stroke-linecap="round" />
</g>
</svg>