<?xml version="1.0" encoding="UTF-8" standalone="no" ?>
<!DOCTYPE svg PUBLIC "-//W3C//DTD SVG 1.1//EN" "http://www.w3.org/Graphics/SVG/1.1/DTD/svg11.dtd">
<svg xmlns="http://www.w3.org/2000/svg" xmlns:xlink="http://www.w3.org/1999/xlink" version="1.1" width="500" height="323" viewBox="0 0 500 323" xml:space="preserve">
<desc>Created with Fabric.js 5.3.0</desc>
<defs>
</defs>
<g transform="matrix(1 0 0 1 250.000783208 161.7805888067)" id="3aVSZuJoGBaCcwbpWKgoP"  >
<g style=""   >
		<g transform="matrix(1 0 0 1 -218.35839599 -0.3081266458)" id="qsAVxn2ktyby4XKp0mPFy"  >
<path style="stroke: rgb(93,64,36); stroke-width: 0; stroke-dasharray: none; stroke-linecap: butt; stroke-dashoffset: 0; stroke-linejoin: miter; stroke-miterlimit: 4; fill: rgb(0,0,0); fill-rule: nonzero; opacity: 1;"  transform=" translate(0, 0)" d="M 0 -31.32832 C 17.29323 -31.32832 31.32832 -17.29323 31.32832 0 C 31.32832 17.29323 17.29323 31.32832 0 31.32832 C -17.29323 31.32832 -31.32832 17.29323 -31.32832 0 C -31.32832 -17.29323 -17.29323 -31.32832 0 -31.32832 z" stroke-linecap="round" />
</g>
		<g transform="matrix(1 0 0 1 218.35839599 -0.3081266458)" id="uxhg7ptkcUe5NLLnh9IgC"  >
<path style="stroke: rgb(45,12,212); stroke-width: 0; stroke-dasharray: none; stroke-linecap: butt; stroke-dashoffset: 0; stroke-linejoin: miter; stroke-miterlimit: 4; fill: rgb(0,0,0); fill-rule: nonzero; opacity: 1;"  transform=" translate(-31.328320802, -31.328320802)" d="M 31.32832080200501 0 C 48.62155388471177 0 62.65664160401002 14.035087719298243 62.65664160401002 31.32832080200501 C 62.65664160401002 48.62155388471177 48.62155388471177 62.65664160401002 31.32832080200501 62.65664160401002 C 14.035087719298243 62.65664160401002 0 48.62155388471177 0 31.32832080200501 C 0 14.035087719298243 14.035087719298243 0 31.32832080200501 0 Z" stroke-linecap="round" />
</g>
		<g transform="matrix(7.045 0 0 1 -2.3496240602 -0.3081266458)" id="PR14GZL09rr5Bdx7U8G98"  >
<path style="stroke: rgb(161,237,234); stroke-width: 0; stroke-dasharray: none; stroke-linecap: butt; stroke-dashoffset: 0; stroke-linejoin: miter; stroke-miterlimit: 4; fill: rgb(0,0,0); fill-rule: nonzero; opacity: 1;"  transform=" translate(0, 0)" d="M -31.32832 -31.32832 L 31.32832 -31.32832 L 31.32832 31.32832 L -31.32832 31.32832 z" stroke-linecap="round" />
</g>
		<g transform="matrix(1 0 0 1 150.909962117 -69.4448061867)" id="8TdoezO0ometj7qtli55q"  >
<g style=""   >
		<g transform="matrix(1 0 0 1 -58.8157560135 -60.694961818)" id="ZeNUdpwltBhSesgKO0C8c"  >
<path style="stroke: rgb(238,43,27); stroke-width: 0; stroke-dasharray: none; stroke-linecap: butt; stroke-dashoffset: 0; stroke-linejoin: miter; stroke-miterlimit: 4; fill: rgb(0,0,0); fill-rule: nonzero; opacity: 1;"  transform=" translate(-31.328320802, -31.328320802)" d="M 31.32832080200501 0 C 48.62155388471177 0 62.65664160401002 14.035087719298243 62.65664160401002 31.32832080200501 C 62.65664160401002 48.62155388471177 48.62155388471177 62.65664160401002 31.32832080200501 62.65664160401002 C 14.035087719298243 62.65664160401002 0 48.62155388471177 0 31.32832080200501 C 0 14.035087719298243 14.035087719298243 0 31.32832080200501 0 Z" stroke-linecap="round" />
</g>
		<g transform="matrix(2.0207477088 2.092545509 -0.7193398003 0.6946583705 4.3017363046 4.7048653451)" id="E-kaU1u0-Q41umHbsquAs"  >
<path style="stroke: rgb(24,212,37); stroke-width: 0; stroke-dasharray: none; stroke-linecap: butt; stroke-dashoffset: 0; stroke-linejoin: miter; stroke-miterlimit: 4; fill: rgb(0,0,0); fill-rule: nonzero; opacity: 1;"  transform=" translate(0, 0)" d="M -31.32832 -31.32832 L 31.32832 -31.32832 L 31.32832 31.32832 L -31.32832 31.32832 z" stroke-linecap="round" />
</g>
</g>
</g>
		<g transform="matrix(1 0 0 -1 150.909962117 69.4448061867)" id="WwZbmOipQ9SnBHH2HDL_0"  >
<g style=""   >
		<g transform="matrix(1 0 0 1 -58.8157560135 -60.694961818)" id="hd2GhR26M1EeF9VZunZ48"  >
<path style="stroke: rgb(238,43,27); stroke-width: 0; stroke-dasharray: none; stroke-linecap: butt; stroke-dashoffset: 0; stroke-linejoin: miter; stroke-miterlimit: 4; fill: rgb(0,0,0); fill-rule: nonzero; opacity: 1;"  transform=" translate(-31.328320802, -31.328320802)" d="M 31.32832080200501 0 C 48.62155388471177 0 62.65664160401002 14.035087719298243 62.65664160401002 31.32832080200501 C 62.65664160401002 48.62155388471177 48.62155388471177 62.65664160401002 31.32832080200501 62.65664160401002 C 14.035087719298243 62.65664160401002 0 48.62155388471177 0 31.32832080200501 C 0 14.035087719298243 14.035087719298243 0 31.32832080200501 0 Z" stroke-linecap="round" />
</g>
		<g transform="matrix(2.0207477088 2.092545509 -0.7193398003 0.6946583705 4.3017363046 4.7048653451)" id="zQUWoBPDYEWbSsYWVBQPS"  >
<path style="stroke: rgb(24,212,37); stroke-width: 0; stroke-dasharray: none; stroke-linecap: butt; stroke-dashoffset: 0; stroke-linejoin: miter; stroke-miterlimit: 4; fill: rgb(0,0,0); fill-rule: nonzero; opacity: 1;"  transform=" translate(0, 0)" d="M -31.32832 -31.32832 L 31.32832 -31.32832 L 31.32832 31.32832 L -31.32832 31.32832 z" stroke-linecap="round" />
</g>
</g>
</g>
</g>
</g>
</svg>