<?xml version="1.0" encoding="UTF-8" standalone="no" ?>
<!DOCTYPE svg PUBLIC "-//W3C//DTD SVG 1.1//EN" "http://www.w3.org/Graphics/SVG/1.1/DTD/svg11.dtd">
<svg xmlns="http://www.w3.org/2000/svg" xmlns:xlink="http://www.w3.org/1999/xlink" version="1.1" width="500" height="160" viewBox="0 0 500 160" xml:space="preserve">
<desc>Created with Fabric.js 5.3.0</desc>
<defs>
</defs>
<g transform="matrix(1.2474449802 0 0 0.8550640187 250.5110038867 80)" id="nOD9ZD-FttuVnhSY-vW6I"  >
<g style=""   >
		<g transform="matrix(0.274 0 0 0.274 190 0.2883539141)" id="q2O4msWJNMm4iHhvQ8mEJ"  >
<path style="stroke: rgb(217,62,76); stroke-width: 0; stroke-dasharray: none; stroke-linecap: butt; stroke-dashoffset: 0; stroke-linejoin: miter; stroke-miterlimit: 4; fill: rgb(0,0,0); fill-rule: nonzero; opacity: 1;"  transform=" translate(0, 0)" d="M 0 -36.49635 C 20.14599 -36.49635 36.49635 -20.14599 36.49635 0 C 36.49635 20.14599 20.14599 36.49635 0 36.49635 C -20.14599 36.49635 -36.49635 20.14599 -36.49635 0 C -36.49635 -20.14599 -20.14599 -36.49635 0 -36.49635 z" stroke-linecap="round" />
</g>
		<g transform="matrix(4.2890720599 0 0 0.274 34.3248629556 0.2883540141)" id="sI4TNLykUJ2qVmVphuS20"  >
<path style="stroke: rgb(49,9,178); stroke-width: 0; stroke-dasharray: none; stroke-linecap: butt; stroke-dashoffset: 0; stroke-linejoin: miter; stroke-miterlimit: 4; fill: rgb(0,0,0); fill-rule: nonzero; opacity: 1;"  transform=" translate(0, 0)" d="M -36.49635 -36.49635 L 36.49635 -36.49635 L 36.49635 36.49635 L -36.49635 36.49635 z" stroke-linecap="round" />
</g>
		<g transform="matrix(0.5116917215 0 0 1 -99.9999999 0.2883540141)" id="NbytNECn_qpmbD7IcP0Zi"  >
<g style=""   >
		<g transform="matrix(0.274 0 0 0.274 -185.4301697463 0)" id="ENHfjvQPyDS6anAwU6gp9"  >
<path style="stroke: rgb(217,62,76); stroke-width: 0; stroke-dasharray: none; stroke-linecap: butt; stroke-dashoffset: 0; stroke-linejoin: miter; stroke-miterlimit: 4; fill: rgb(0,0,0); fill-rule: nonzero; opacity: 1;"  transform=" translate(0, 0)" d="M 0 -36.49635 C 20.14599 -36.49635 36.49635 -20.14599 36.49635 0 C 36.49635 20.14599 20.14599 36.49635 0 36.49635 C -20.14599 36.49635 -36.49635 20.14599 -36.49635 0 C -36.49635 -20.14599 -20.14599 -36.49635 0 -36.49635 z" stroke-linecap="round" />
</g>
		<g transform="matrix(5.2182413216 0 0 0.274 4.9834061842 0)" id="mmbwRwjrST_OqwgtV8UPo"  >
<path style="stroke: rgb(49,9,178); stroke-width: 0; stroke-dasharray: none; stroke-linecap: butt; stroke-dashoffset: 0; stroke-linejoin: miter; stroke-miterlimit: 4; fill: rgb(0,0,0); fill-rule: nonzero; opacity: 1;"  transform=" translate(0, 0)" d="M -36.49635 -36.49635 L 36.49635 -36.49635 L 36.49635 36.49635 L -36.49635 36.49635 z" stroke-linecap="round" />
</g>
</g>
</g>
		<g transform="matrix(0.4637501918 0.2162502659 -0.4226182617 0.906307787 98.9113531327 -42.2353420358)" id="ZPWFE1xem_dqDSXZ4MibK"  >
<g style=""   >
		<g transform="matrix(0.274 0 0 0.274 -185.4301697463 0)" id="yQRkP730rs9IA5py0JO0N"  >
<path style="stroke: rgb(217,62,76); stroke-width: 0; stroke-dasharray: none; stroke-linecap: butt; stroke-dashoffset: 0; stroke-linejoin: miter; stroke-miterlimit: 4; fill: rgb(0,0,0); fill-rule: nonzero; opacity: 1;"  transform=" translate(0, 0)" d="M 0 -36.49635 C 20.14599 -36.49635 36.49635 -20.14599 36.49635 0 C 36.49635 20.14599 20.14599 36.49635 0 36.49635 C -20.14599 36.49635 -36.49635 20.14599 -36.49635 0 C -36.49635 -20.14599 -20.14599 -36.49635 0 -36.49635 z" stroke-linecap="round" />
</g>
		<g transform="matrix(5.2182413216 0 0 0.274 4.9834061842 0)" id="plxH8P7EfKXO5_ahcbSHG"  >
<path style="stroke: rgb(49,9,178); stroke-width: 0; stroke-dasharray: none; stroke-linecap: butt; stroke-dashoffset: 0; stroke-linejoin: miter; stroke-miterlimit: 4; fill: rgb(0,0,0); fill-rule: nonzero; opacity: 1;"  transform=" translate(0, 0)" d="M -36.49635 -36.49635 L 36.49635 -36.49635 L 36.49635 36.49635 L -36.49635 36.49635 z" stroke-linecap="round" />
</g>
</g>
</g>
		<g transform="matrix(0.4637501918 -0.2162502659 -0.4226182617 -0.906307787 100.0000001 42.2353420358)" id="DU7VUhnUaQS-mg7Iszo4g"  >
<g style=""   >
		<g transform="matrix(0.274 0 0 0.274 -185.4301697463 0)" id="6u9YdRsmVO5hO5vpe12lg"  >
<path style="stroke: rgb(217,62,76); stroke-width: 0; stroke-dasharray: none; stroke-linecap: butt; stroke-dashoffset: 0; stroke-linejoin: miter; stroke-miterlimit: 4; fill: rgb(0,0,0); fill-rule: nonzero; opacity: 1;"  transform=" translate(0, 0)" d="M 0 -36.49635 C 20.14599 -36.49635 36.49635 -20.14599 36.49635 0 C 36.49635 20.14599 20.14599 36.49635 0 36.49635 C -20.14599 36.49635 -36.49635 20.14599 -36.49635 0 C -36.49635 -20.14599 -20.14599 -36.49635 0 -36.49635 z" stroke-linecap="round" />
</g>
		<g transform="matrix(5.2182413216 0 0 0.274 4.9834061842 0)" id="p4Hv953sO_QM5AL3VR16O"  >
<path style="stroke: rgb(49,9,178); stroke-width: 0; stroke-dasharray: none; stroke-linecap: butt; stroke-dashoffset: 0; stroke-linejoin: miter; stroke-miterlimit: 4; fill: rgb(0,0,0); fill-rule: nonzero; opacity: 1;"  transform=" translate(0, 0)" d="M -36.49635 -36.49635 L 36.49635 -36.49635 L 36.49635 36.49635 L -36.49635 36.49635 z" stroke-linecap="round" />
</g>
</g>
</g>
</g>
</g>
</svg>