<?xml version="1.0" encoding="UTF-8" standalone="no" ?>
<!DOCTYPE svg PUBLIC "-//W3C//DTD SVG 1.1//EN" "http://www.w3.org/Graphics/SVG/1.1/DTD/svg11.dtd">
<svg xmlns="http://www.w3.org/2000/svg" xmlns:xlink="http://www.w3.org/1999/xlink" version="1.1" width="500pt" height="500pt" viewBox="0 0 499.99998 499.99998" xml:space="preserve">
<desc>Created with Fabric.js 5.3.0</desc>
<defs>
</defs>
<g transform="matrix(1.1497881985 0 0 1.1497881985 118.0789930685 297.520607434)" id="2J2D5eICfnp-BCRnOzPJ4"  >
<path style="stroke: rgb(0,0,0); stroke-width: 2.5; stroke-dasharray: none; stroke-linecap: butt; stroke-dashoffset: 0; stroke-linejoin: miter; stroke-miterlimit: 4; fill: rgb(245,245,245); fill-rule: nonzero; opacity: 1;"  transform=" translate(0, 0)" d="M -101.97556 175.38071 L 75.57961 175.38071 L 75.57961 4.822329999999994 L 8.066919999999996 4.822329999999994 L 8.066919999999996 -21.035520000000005 L 9.956699999999996 -38.377370000000006 L 9.956699999999996 -38.377370000000006 C 10.721459999999997 -45.39533000000001 12.702849999999996 -52.22643000000001 15.812039999999996 -58.56438000000001 L 16.494119999999995 -59.95477000000001 L 16.494119999999995 -59.95477000000001 C 21.618349999999996 -70.40031 29.350689999999993 -79.34724000000001 38.94369 -85.93066000000002 L 39.72633 -86.46776000000001 L 39.72633 -86.46776000000001 C 46.673809999999996 -91.23564000000002 54.254909999999995 -95.00683000000001 62.24866 -97.67141000000001 L 62.36448 -97.71002000000001 L 62.36448 -97.71002000000001 C 73.5184 -101.42799000000001 84.99925999999999 -104.08168000000002 96.65339 -105.63557000000002 L 101.97558000000001 -106.34519000000002 L 101.97558000000001 -175.38072 L 63.90451000000001 -171.31981 L 28.90339000000001 -163.47473 L 28.90339000000001 -163.47473 C 13.069600000000008 -159.92578 -2.1500299999999903 -154.04724 -16.25838999999999 -146.03112 L -26.325369999999992 -140.31124999999997 L -26.325369999999992 -140.31124999999997 C -35.150369999999995 -135.29703999999998 -43.112869999999994 -128.89815 -49.90874999999999 -121.35897999999997 L -54.260279999999995 -116.53150999999997 L -54.260279999999995 -116.53150999999997 C -66.10255 -103.39398999999997 -75.78631999999999 -88.46145999999997 -82.95074 -72.29033999999997 L -89.90259999999999 -56.59898999999997 L -94.29284 -42.33071999999997 L -94.29284 -42.33071999999997 C -96.77517 -34.26314999999997 -98.50061 -25.98188999999997 -99.44679 -17.59424999999997 L -101.97554 4.822330000000029 z" stroke-linecap="round" />
</g>
<g transform="matrix(1.1506999487 0 0 1.1506999487 381.8275397521 297.3602518469)" id="NMOex4SWZTaTvhmil8QOv"  >
<path style="stroke: rgb(0,0,0); stroke-width: 2.5; stroke-dasharray: none; stroke-linecap: butt; stroke-dashoffset: 0; stroke-linejoin: miter; stroke-miterlimit: 4; fill: rgb(245,245,245); fill-rule: nonzero; opacity: 1;"  transform=" translate(0, 0)" d="M -101.97556 175.38071 L 75.57961 175.38071 L 75.57961 4.822329999999994 L 8.066919999999996 4.822329999999994 L 8.066919999999996 -21.035520000000005 L 9.956699999999996 -38.377370000000006 L 9.956699999999996 -38.377370000000006 C 10.721459999999997 -45.39533000000001 12.702849999999996 -52.22643000000001 15.812039999999996 -58.56438000000001 L 16.494119999999995 -59.95477000000001 L 16.494119999999995 -59.95477000000001 C 21.618349999999996 -70.40031 29.350689999999993 -79.34724000000001 38.94369 -85.93066000000002 L 39.72633 -86.46776000000001 L 39.72633 -86.46776000000001 C 46.673809999999996 -91.23564000000002 54.254909999999995 -95.00683000000001 62.24866 -97.67141000000001 L 62.36448 -97.71002000000001 L 62.36448 -97.71002000000001 C 73.5184 -101.42799000000001 84.99925999999999 -104.08168000000002 96.65339 -105.63557000000002 L 101.97558000000001 -106.34519000000002 L 101.97558000000001 -175.38072 L 63.90451000000001 -171.31981 L 28.90339000000001 -163.47473 L 28.90339000000001 -163.47473 C 13.069600000000008 -159.92578 -2.1500299999999903 -154.04724 -16.25838999999999 -146.03112 L -26.325369999999992 -140.31124999999997 L -26.325369999999992 -140.31124999999997 C -35.150369999999995 -135.29703999999998 -43.112869999999994 -128.89815 -49.90874999999999 -121.35897999999997 L -54.260279999999995 -116.53150999999997 L -54.260279999999995 -116.53150999999997 C -66.10255 -103.39398999999997 -75.78631999999999 -88.46145999999997 -82.95074 -72.29033999999997 L -89.90259999999999 -56.59898999999997 L -94.29284 -42.33071999999997 L -94.29284 -42.33071999999997 C -96.77517 -34.26314999999997 -98.50061 -25.98188999999997 -99.44679 -17.59424999999997 L -101.97554 4.822330000000029 z" stroke-linecap="round" />
</g>
</svg>