<svg width="48" height="44" viewBox="0 0 48 44" fill="none" xmlns="http://www.w3.org/2000/svg">
<g clip-path="url(#clip0_3012_89)">
<path d="M46.5319 11.747C45.9899 9.92005 44.4026 8.47957 42.3894 7.9877C38.7115 7.07422 23.9999 7.07422 23.9999 7.07422C23.9999 7.07422 9.28827 7.07422 5.61036 7.95256C3.6359 8.44443 2.00988 9.92005 1.46787 11.747C0.5 15.0847 0.5 22.006 0.5 22.006C0.5 22.006 0.5 28.9625 1.46787 32.2651C2.00988 34.092 3.59719 35.5325 5.61036 36.0244C9.32698 36.9379 23.9999 36.9379 23.9999 36.9379C23.9999 36.9379 38.7115 36.9379 42.3894 36.0595C44.4026 35.5677 45.9899 34.1272 46.5319 32.3002C47.4998 28.9625 47.4998 22.0412 47.4998 22.0412C47.4998 22.0412 47.5385 15.0847 46.5319 11.747Z" fill="#202020"/>
<path d="M19.3154 28.4L31.5493 22.0057L19.3154 15.6113V28.4Z" fill="#F5F5F5"/>
</g>
<defs>
<clipPath id="clip0_3012_89">
<rect width="47" height="42.6525" fill="white" transform="translate(0.5 0.676758)"/>
</clipPath>
</defs>
</svg>
