<svg width="26" height="30" viewBox="0 0 26 30" fill="none" xmlns="http://www.w3.org/2000/svg">
<path d="M17.4503 14.3427C17.3702 14.3055 17.2888 14.2697 17.2064 14.2355C17.0629 11.6755 15.6176 10.2098 13.1908 10.1948C13.1798 10.1948 13.1689 10.1948 13.1579 10.1948C11.7064 10.1948 10.4991 10.7945 9.7561 11.8857L11.0908 12.7718C11.6458 11.9567 12.517 11.7829 13.1585 11.7829C13.1659 11.7829 13.1734 11.783 13.1807 11.783C13.9798 11.7879 14.5827 12.0128 14.973 12.4513C15.257 12.7706 15.4469 13.2117 15.541 13.7685C14.8325 13.6519 14.0663 13.6161 13.2473 13.6616C10.94 13.7902 9.45671 15.0926 9.55633 16.9024C9.60689 17.8204 10.0794 18.6101 10.8868 19.126C11.5694 19.5622 12.4486 19.7754 13.3623 19.7272C14.569 19.6631 15.5156 19.2175 16.176 18.4028C16.6775 17.784 16.9948 16.9822 17.1348 15.9718C17.7099 16.3077 18.1361 16.7498 18.3715 17.2811C18.7717 18.1844 18.795 19.6687 17.5437 20.8789C16.4473 21.939 15.1294 22.3976 13.1377 22.4118C10.9283 22.3959 9.25744 21.7102 8.17107 20.3735C7.15377 19.1218 6.62802 17.3139 6.60841 15C6.62802 12.686 7.15377 10.8782 8.17107 9.6265C9.25744 8.28983 10.9283 7.60406 13.1377 7.58817C15.363 7.60418 17.0631 8.29326 18.191 9.63637C18.7441 10.295 19.1611 11.1233 19.436 12.0891L21 11.6852C20.6668 10.4965 20.1425 9.4721 19.429 8.62256C17.983 6.90063 15.8681 6.0183 13.1431 6H13.1322C10.4128 6.01823 8.32159 6.90392 6.91673 8.63243C5.66659 10.1706 5.02174 12.3108 5.00007 14.9937L5 15L5.00007 15.0063C5.02174 17.6891 5.66659 19.8294 6.91673 21.3676C8.32159 23.0961 10.4128 23.9818 13.1322 24H13.1431C15.5608 23.9838 17.265 23.3711 18.6689 22.0135C20.5057 20.2374 20.4504 18.0112 19.845 16.6445C19.4107 15.6644 18.5826 14.8684 17.4503 14.3427ZM13.2759 18.1413C12.2647 18.1964 11.2141 17.7571 11.1623 16.8161C11.1239 16.1184 11.6753 15.3399 13.338 15.2472C13.5284 15.2366 13.7152 15.2314 13.8988 15.2314C14.5027 15.2314 15.0677 15.2882 15.5814 15.3968C15.3898 17.7127 14.266 18.0887 13.2759 18.1413Z" fill="#202020"/>
</svg>
